<svg width="533" height="262" viewBox="0 0 533 262" fill="none" xmlns="http://www.w3.org/2000/svg">
<path d="M15.3519 229.834C15.3519 228.229 15.6132 226.978 16.1359 226.082C16.6585 225.177 17.5732 224.724 18.8799 224.724C20.1772 224.724 21.0872 225.177 21.6099 226.082C22.1325 226.978 22.3939 228.229 22.3939 229.834C22.3939 231.467 22.1325 232.737 21.6099 233.642C21.0872 234.547 20.1772 235 18.8799 235C17.5732 235 16.6585 234.547 16.1359 233.642C15.6132 232.737 15.3519 231.467 15.3519 229.834ZM21.1339 229.834C21.1339 229.022 21.0779 228.336 20.9659 227.776C20.8632 227.207 20.6439 226.749 20.3079 226.404C19.9812 226.059 19.5052 225.886 18.8799 225.886C18.2452 225.886 17.7599 226.059 17.4239 226.404C17.0972 226.749 16.8779 227.207 16.7659 227.776C16.6632 228.336 16.6119 229.022 16.6119 229.834C16.6119 230.674 16.6632 231.379 16.7659 231.948C16.8779 232.517 17.0972 232.975 17.4239 233.32C17.7599 233.665 18.2452 233.838 18.8799 233.838C19.5052 233.838 19.9812 233.665 20.3079 233.32C20.6439 232.975 20.8632 232.517 20.9659 231.948C21.0779 231.379 21.1339 230.674 21.1339 229.834Z" fill="#A2A3A5"/>
<line x1="33.4839" y1="229.5" x2="533" y2="229.5" stroke="#ECE9F1"/>
<path d="M3.91135 164.04V162.878H6.54335V173H5.25535V164.04H3.91135ZM13.8557 163.242V170.452C13.8557 171.255 13.6084 171.899 13.1137 172.384C12.6191 172.86 11.9657 173.098 11.1537 173.098C10.3324 173.098 9.67439 172.855 9.17972 172.37C8.68506 171.875 8.43772 171.203 8.43772 170.354H9.71172C9.72106 170.83 9.84239 171.217 10.0757 171.516C10.3184 171.815 10.6777 171.964 11.1537 171.964C11.6297 171.964 11.9844 171.824 12.2177 171.544C12.4511 171.255 12.5677 170.891 12.5677 170.452V163.242H13.8557ZM22.3716 163.242V164.278H19.7116V173H18.4376V164.278H15.7636V163.242H22.3716Z" fill="#A2A3A5"/>
<line x1="33.3793" y1="167.5" x2="533" y2="167.5" stroke="#ECE9F1"/>
<path d="M1.714 109.978C2.89933 109.026 3.828 108.247 4.5 107.64C5.172 107.024 5.73667 106.385 6.194 105.722C6.66067 105.05 6.894 104.392 6.894 103.748C6.894 103.141 6.74467 102.665 6.446 102.32C6.15667 101.965 5.68533 101.788 5.032 101.788C4.39733 101.788 3.90267 101.989 3.548 102.39C3.20267 102.782 3.016 103.309 2.988 103.972H1.756C1.79333 102.927 2.11067 102.119 2.708 101.55C3.30533 100.981 4.07533 100.696 5.018 100.696C5.97933 100.696 6.74 100.962 7.3 101.494C7.86933 102.026 8.154 102.759 8.154 103.692C8.154 104.467 7.92067 105.223 7.454 105.96C6.99667 106.688 6.474 107.332 5.886 107.892C5.298 108.443 4.54667 109.087 3.632 109.824H8.448V110.888H1.714V109.978ZM15.0447 101.242V108.452C15.0447 109.255 14.7974 109.899 14.3027 110.384C13.8081 110.86 13.1547 111.098 12.3427 111.098C11.5214 111.098 10.8634 110.855 10.3687 110.37C9.87407 109.875 9.62673 109.203 9.62673 108.354H10.9007C10.9101 108.83 11.0314 109.217 11.2647 109.516C11.5074 109.815 11.8667 109.964 12.3427 109.964C12.8187 109.964 13.1734 109.824 13.4067 109.544C13.6401 109.255 13.7567 108.891 13.7567 108.452V101.242H15.0447ZM23.5606 101.242V102.278H20.9006V111H19.6266V102.278H16.9526V101.242H23.5606Z" fill="#A2A3A5"/>
<line x1="35" y1="105.5" x2="533" y2="105.5" stroke="#ECE9F1"/>
<path d="M1.84 41.426C1.90533 40.5673 2.23667 39.8953 2.834 39.41C3.43133 38.9247 4.206 38.682 5.158 38.682C5.79267 38.682 6.33867 38.7987 6.796 39.032C7.26267 39.256 7.61267 39.564 7.846 39.956C8.08867 40.348 8.21 40.7913 8.21 41.286C8.21 41.8647 8.042 42.364 7.706 42.784C7.37933 43.204 6.95 43.4747 6.418 43.596V43.666C7.02467 43.8153 7.50533 44.1093 7.86 44.548C8.21467 44.9867 8.392 45.5607 8.392 46.27C8.392 46.802 8.27067 47.2827 8.028 47.712C7.78533 48.132 7.42133 48.4633 6.936 48.706C6.45067 48.9487 5.86733 49.07 5.186 49.07C4.19667 49.07 3.38467 48.8133 2.75 48.3C2.11533 47.7773 1.76067 47.04 1.686 46.088H2.918C2.98333 46.648 3.212 47.1053 3.604 47.46C3.996 47.8147 4.51867 47.992 5.172 47.992C5.82533 47.992 6.32 47.824 6.656 47.488C7.00133 47.1427 7.174 46.6993 7.174 46.158C7.174 45.458 6.94067 44.954 6.474 44.646C6.00733 44.338 5.30267 44.184 4.36 44.184H4.038V43.12H4.374C5.23267 43.1107 5.88133 42.9707 6.32 42.7C6.75867 42.42 6.978 41.9907 6.978 41.412C6.978 40.9173 6.81467 40.5207 6.488 40.222C6.17067 39.9233 5.71333 39.774 5.116 39.774C4.53733 39.774 4.07067 39.9233 3.716 40.222C3.36133 40.5207 3.15133 40.922 3.086 41.426H1.84ZM15.2361 39.242V46.452C15.2361 47.2547 14.9888 47.8987 14.4941 48.384C13.9995 48.86 13.3461 49.098 12.5341 49.098C11.7128 49.098 11.0548 48.8553 10.5601 48.37C10.0655 47.8753 9.81814 47.2033 9.81814 46.354H11.0921C11.1015 46.83 11.2228 47.2173 11.4561 47.516C11.6988 47.8147 12.0581 47.964 12.5341 47.964C13.0101 47.964 13.3648 47.824 13.5981 47.544C13.8315 47.2547 13.9481 46.8907 13.9481 46.452V39.242H15.2361ZM23.752 39.242V40.278H21.092V49H19.818V40.278H17.144V39.242H23.752Z" fill="#A2A3A5"/>
<line x1="35" y1="43.5" x2="533" y2="43.5" stroke="#ECE9F1"/>
<path d="M30.4215 251.834C30.4215 250.229 30.6828 248.978 31.2055 248.082C31.7281 247.177 32.6428 246.724 33.9495 246.724C35.2468 246.724 36.1568 247.177 36.6795 248.082C37.2021 248.978 37.4635 250.229 37.4635 251.834C37.4635 253.467 37.2021 254.737 36.6795 255.642C36.1568 256.547 35.2468 257 33.9495 257C32.6428 257 31.7281 256.547 31.2055 255.642C30.6828 254.737 30.4215 253.467 30.4215 251.834ZM36.2035 251.834C36.2035 251.022 36.1475 250.336 36.0355 249.776C35.9328 249.207 35.7135 248.749 35.3775 248.404C35.0508 248.059 34.5748 247.886 33.9495 247.886C33.3148 247.886 32.8295 248.059 32.4935 248.404C32.1668 248.749 31.9475 249.207 31.8355 249.776C31.7328 250.336 31.6815 251.022 31.6815 251.834C31.6815 252.674 31.7328 253.379 31.8355 253.948C31.9475 254.517 32.1668 254.975 32.4935 255.32C32.8295 255.665 33.3148 255.838 33.9495 255.838C34.5748 255.838 35.0508 255.665 35.3775 255.32C35.7135 254.975 35.9328 254.517 36.0355 253.948C36.1475 253.379 36.2035 252.674 36.2035 251.834Z" fill="#A2A3A5"/>
<path d="M137.558 251.834C137.558 250.229 137.819 248.978 138.342 248.082C138.865 247.177 139.779 246.724 141.086 246.724C142.383 246.724 143.293 247.177 143.816 248.082C144.339 248.978 144.6 250.229 144.6 251.834C144.6 253.467 144.339 254.737 143.816 255.642C143.293 256.547 142.383 257 141.086 257C139.779 257 138.865 256.547 138.342 255.642C137.819 254.737 137.558 253.467 137.558 251.834ZM143.34 251.834C143.34 251.022 143.284 250.336 143.172 249.776C143.069 249.207 142.85 248.749 142.514 248.404C142.187 248.059 141.711 247.886 141.086 247.886C140.451 247.886 139.966 248.059 139.63 248.404C139.303 248.749 139.084 249.207 138.972 249.776C138.869 250.336 138.818 251.022 138.818 251.834C138.818 252.674 138.869 253.379 138.972 253.948C139.084 254.517 139.303 254.975 139.63 255.32C139.966 255.665 140.451 255.838 141.086 255.838C141.711 255.838 142.187 255.665 142.514 255.32C142.85 254.975 143.069 254.517 143.172 253.948C143.284 253.379 143.34 252.674 143.34 251.834ZM152.579 247.872L148.687 257H147.399L151.347 247.998H145.943V246.906H152.579V247.872Z" fill="#A2A3A5"/>
<path d="M244.358 248.04V246.878H246.99V257H245.702V248.04H244.358ZM248.871 254.746V253.78L253.785 246.976H255.311V253.64H256.711V254.746H255.311V257H254.051V254.746H248.871ZM254.107 248.306L250.341 253.64H254.107V248.306Z" fill="#A2A3A5"/>
<path d="M350.677 255.978C351.862 255.026 352.791 254.247 353.463 253.64C354.135 253.024 354.7 252.385 355.157 251.722C355.624 251.05 355.857 250.392 355.857 249.748C355.857 249.141 355.708 248.665 355.409 248.32C355.12 247.965 354.648 247.788 353.995 247.788C353.36 247.788 352.866 247.989 352.511 248.39C352.166 248.782 351.979 249.309 351.951 249.972H350.719C350.756 248.927 351.074 248.119 351.671 247.55C352.268 246.981 353.038 246.696 353.981 246.696C354.942 246.696 355.703 246.962 356.263 247.494C356.832 248.026 357.117 248.759 357.117 249.692C357.117 250.467 356.884 251.223 356.417 251.96C355.96 252.688 355.437 253.332 354.849 253.892C354.261 254.443 353.51 255.087 352.595 255.824H357.411V256.888H350.677V255.978ZM358.548 248.04V246.878H361.18V257H359.892V248.04H358.548Z" fill="#A2A3A5"/>
<path d="M458.813 255.978C459.999 255.026 460.927 254.247 461.599 253.64C462.271 253.024 462.836 252.385 463.293 251.722C463.76 251.05 463.993 250.392 463.993 249.748C463.993 249.141 463.844 248.665 463.545 248.32C463.256 247.965 462.785 247.788 462.131 247.788C461.497 247.788 461.002 247.989 460.647 248.39C460.302 248.782 460.115 249.309 460.087 249.972H458.855C458.893 248.927 459.21 248.119 459.807 247.55C460.405 246.981 461.175 246.696 462.117 246.696C463.079 246.696 463.839 246.962 464.399 247.494C464.969 248.026 465.253 248.759 465.253 249.692C465.253 250.467 465.02 251.223 464.553 251.96C464.096 252.688 463.573 253.332 462.985 253.892C462.397 254.443 461.646 255.087 460.731 255.824H465.547V256.888H458.813V255.978ZM468.868 251.736C468.345 251.531 467.944 251.232 467.664 250.84C467.384 250.448 467.244 249.972 467.244 249.412C467.244 248.908 467.37 248.455 467.622 248.054C467.874 247.643 468.247 247.321 468.742 247.088C469.246 246.845 469.853 246.724 470.562 246.724C471.271 246.724 471.873 246.845 472.368 247.088C472.872 247.321 473.25 247.643 473.502 248.054C473.763 248.455 473.894 248.908 473.894 249.412C473.894 249.953 473.749 250.429 473.46 250.84C473.171 251.241 472.774 251.54 472.27 251.736C472.849 251.913 473.306 252.226 473.642 252.674C473.987 253.113 474.16 253.645 474.16 254.27C474.16 254.877 474.011 255.409 473.712 255.866C473.413 256.314 472.989 256.664 472.438 256.916C471.897 257.159 471.271 257.28 470.562 257.28C469.853 257.28 469.227 257.159 468.686 256.916C468.154 256.664 467.739 256.314 467.44 255.866C467.141 255.409 466.992 254.877 466.992 254.27C466.992 253.645 467.16 253.108 467.496 252.66C467.832 252.212 468.289 251.904 468.868 251.736ZM472.662 249.566C472.662 248.997 472.475 248.558 472.102 248.25C471.729 247.942 471.215 247.788 470.562 247.788C469.918 247.788 469.409 247.942 469.036 248.25C468.663 248.558 468.476 249.001 468.476 249.58C468.476 250.103 468.667 250.523 469.05 250.84C469.442 251.157 469.946 251.316 470.562 251.316C471.187 251.316 471.691 251.157 472.074 250.84C472.466 250.513 472.662 250.089 472.662 249.566ZM470.562 252.296C469.871 252.296 469.307 252.459 468.868 252.786C468.429 253.103 468.21 253.584 468.21 254.228C468.21 254.825 468.42 255.306 468.84 255.67C469.269 256.034 469.843 256.216 470.562 256.216C471.281 256.216 471.85 256.034 472.27 255.67C472.69 255.306 472.9 254.825 472.9 254.228C472.9 253.603 472.685 253.127 472.256 252.8C471.827 252.464 471.262 252.296 470.562 252.296Z" fill="#A2A3A5"/>
<g filter="url(#filter0_dd_0_108)">
<path d="M29.5535 125C29.5535 125 64.1623 115.323 86.4235 110.058C147.834 95.5347 182.671 75.5354 244.493 84.0304C278.309 88.677 296.034 112.122 329.944 110.058C353.583 108.619 389.439 91.2603 389.439 91.2603" stroke="#2D5BFF" stroke-width="4"/>
</g>
<g filter="url(#filter1_dd_0_108)">
<circle cx="389.714" cy="88" r="12" fill="white"/>
</g>
<ellipse cx="389.715" cy="87.9999" rx="8" ry="8" fill="#2D5BFF"/>
<g filter="url(#filter2_dd_0_108)">
<path fill-rule="evenodd" clip-rule="evenodd" d="M392.154 86.4891C390.763 88.5036 388.509 88.5036 387.119 86.4891L384.687 83.1381C383.809 81.9286 383.371 81.3238 382.808 80.8872C382.31 80.5005 381.743 80.2115 381.138 80.0355C380.454 79.8367 379.707 79.8367 378.212 79.8367H343.985C339.122 79.8367 337.359 79.2684 335.581 78.2012C333.803 77.134 332.408 75.568 331.457 73.5725C330.506 71.5771 330 69.5978 330 64.1395V23.6973C330 18.239 330.506 16.2597 331.457 14.2642C332.408 12.2687 333.803 10.7027 335.581 9.63551C337.359 8.56832 339.122 8 343.985 8H436.015C440.878 8 442.641 8.56832 444.419 9.63551C446.197 10.7027 447.592 12.2687 448.543 14.2642C449.494 16.2597 450 18.239 450 23.6973V64.1395C450 69.5978 449.494 71.5771 448.543 73.5725C447.592 75.568 446.197 77.134 444.419 78.2012C442.641 79.2684 440.878 79.8367 436.015 79.8367H405.139C402.151 79.8367 400.656 79.8367 399.289 80.2343C398.078 80.5863 396.944 81.1643 395.948 81.9376C394.823 82.8109 393.933 84.037 392.154 86.4891Z" fill="white"/>
</g>
<path d="M345.113 24.636V25.524H342.833V33H341.741V25.524H339.449V24.636H345.113ZM349.325 33.108C348.709 33.108 348.149 32.968 347.645 32.688C347.149 32.408 346.757 32.012 346.469 31.5C346.189 30.98 346.049 30.38 346.049 29.7C346.049 29.028 346.193 28.436 346.481 27.924C346.777 27.404 347.177 27.008 347.681 26.736C348.185 26.456 348.749 26.316 349.373 26.316C349.997 26.316 350.561 26.456 351.065 26.736C351.569 27.008 351.965 27.4 352.253 27.912C352.549 28.424 352.697 29.02 352.697 29.7C352.697 30.38 352.545 30.98 352.241 31.5C351.945 32.012 351.541 32.408 351.029 32.688C350.517 32.968 349.949 33.108 349.325 33.108ZM349.325 32.148C349.717 32.148 350.085 32.056 350.429 31.872C350.773 31.688 351.049 31.412 351.257 31.044C351.473 30.676 351.581 30.228 351.581 29.7C351.581 29.172 351.477 28.724 351.269 28.356C351.061 27.988 350.789 27.716 350.453 27.54C350.117 27.356 349.753 27.264 349.361 27.264C348.961 27.264 348.593 27.356 348.257 27.54C347.929 27.716 347.665 27.988 347.465 28.356C347.265 28.724 347.165 29.172 347.165 29.7C347.165 30.236 347.261 30.688 347.453 31.056C347.653 31.424 347.917 31.7 348.245 31.884C348.573 32.06 348.933 32.148 349.325 32.148ZM353.725 29.688C353.725 29.016 353.861 28.428 354.133 27.924C354.405 27.412 354.777 27.016 355.249 26.736C355.729 26.456 356.265 26.316 356.857 26.316C357.369 26.316 357.845 26.436 358.285 26.676C358.725 26.908 359.061 27.216 359.293 27.6V24.12H360.397V33H359.293V31.764C359.077 32.156 358.757 32.48 358.333 32.736C357.909 32.984 357.413 33.108 356.845 33.108C356.261 33.108 355.729 32.964 355.249 32.676C354.777 32.388 354.405 31.984 354.133 31.464C353.861 30.944 353.725 30.352 353.725 29.688ZM359.293 29.7C359.293 29.204 359.193 28.772 358.993 28.404C358.793 28.036 358.521 27.756 358.177 27.564C357.841 27.364 357.469 27.264 357.061 27.264C356.653 27.264 356.281 27.36 355.945 27.552C355.609 27.744 355.341 28.024 355.141 28.392C354.941 28.76 354.841 29.192 354.841 29.688C354.841 30.192 354.941 30.632 355.141 31.008C355.341 31.376 355.609 31.66 355.945 31.86C356.281 32.052 356.653 32.148 357.061 32.148C357.469 32.148 357.841 32.052 358.177 31.86C358.521 31.66 358.793 31.376 358.993 31.008C359.193 30.632 359.293 30.196 359.293 29.7ZM361.834 29.688C361.834 29.016 361.97 28.428 362.242 27.924C362.514 27.412 362.886 27.016 363.358 26.736C363.838 26.456 364.37 26.316 364.954 26.316C365.53 26.316 366.03 26.44 366.454 26.688C366.878 26.936 367.194 27.248 367.402 27.624V26.424H368.506V33H367.402V31.776C367.186 32.16 366.862 32.48 366.43 32.736C366.006 32.984 365.51 33.108 364.942 33.108C364.358 33.108 363.83 32.964 363.358 32.676C362.886 32.388 362.514 31.984 362.242 31.464C361.97 30.944 361.834 30.352 361.834 29.688ZM367.402 29.7C367.402 29.204 367.302 28.772 367.102 28.404C366.902 28.036 366.63 27.756 366.286 27.564C365.95 27.364 365.578 27.264 365.17 27.264C364.762 27.264 364.39 27.36 364.054 27.552C363.718 27.744 363.45 28.024 363.25 28.392C363.05 28.76 362.95 29.192 362.95 29.688C362.95 30.192 363.05 30.632 363.25 31.008C363.45 31.376 363.718 31.66 364.054 31.86C364.39 32.052 364.762 32.148 365.17 32.148C365.578 32.148 365.95 32.052 366.286 31.86C366.63 31.66 366.902 31.376 367.102 31.008C367.302 30.632 367.402 30.196 367.402 29.7ZM376.016 26.424L372.056 36.096H370.928L372.224 32.928L369.572 26.424H370.784L372.848 31.752L374.888 26.424H376.016ZM378.241 31.488L376.897 34.716H376.165L377.041 31.488H378.241ZM382.38 32.124C383.396 31.308 384.192 30.64 384.768 30.12C385.344 29.592 385.828 29.044 386.22 28.476C386.62 27.9 386.82 27.336 386.82 26.784C386.82 26.264 386.692 25.856 386.436 25.56C386.188 25.256 385.784 25.104 385.224 25.104C384.68 25.104 384.256 25.276 383.952 25.62C383.656 25.956 383.496 26.408 383.472 26.976H382.416C382.448 26.08 382.72 25.388 383.232 24.9C383.744 24.412 384.404 24.168 385.212 24.168C386.036 24.168 386.688 24.396 387.168 24.852C387.656 25.308 387.9 25.936 387.9 26.736C387.9 27.4 387.7 28.048 387.3 28.68C386.908 29.304 386.46 29.856 385.956 30.336C385.452 30.808 384.808 31.36 384.024 31.992H388.152V32.904H382.38V32.124ZM389.282 32.124C390.298 31.308 391.094 30.64 391.67 30.12C392.246 29.592 392.73 29.044 393.122 28.476C393.522 27.9 393.722 27.336 393.722 26.784C393.722 26.264 393.594 25.856 393.338 25.56C393.09 25.256 392.686 25.104 392.126 25.104C391.582 25.104 391.158 25.276 390.854 25.62C390.558 25.956 390.398 26.408 390.374 26.976H389.318C389.35 26.08 389.622 25.388 390.134 24.9C390.646 24.412 391.306 24.168 392.114 24.168C392.938 24.168 393.59 24.396 394.07 24.852C394.558 25.308 394.802 25.936 394.802 26.736C394.802 27.4 394.602 28.048 394.202 28.68C393.81 29.304 393.362 29.856 392.858 30.336C392.354 30.808 391.71 31.36 390.926 31.992H395.054V32.904H389.282V32.124ZM404.639 31.14H400.991L400.319 33H399.167L402.191 24.684H403.451L406.463 33H405.311L404.639 31.14ZM404.327 30.252L402.815 26.028L401.303 30.252H404.327ZM413.613 26.424V33H412.521V32.028C412.313 32.364 412.021 32.628 411.645 32.82C411.277 33.004 410.869 33.096 410.421 33.096C409.909 33.096 409.449 32.992 409.041 32.784C408.633 32.568 408.309 32.248 408.069 31.824C407.837 31.4 407.721 30.884 407.721 30.276V26.424H408.801V30.132C408.801 30.78 408.965 31.28 409.293 31.632C409.621 31.976 410.069 32.148 410.637 32.148C411.221 32.148 411.681 31.968 412.017 31.608C412.353 31.248 412.521 30.724 412.521 30.036V26.424H413.613ZM418.169 26.316C418.737 26.316 419.233 26.44 419.657 26.688C420.089 26.936 420.409 27.248 420.617 27.624V26.424H421.721V33.144C421.721 33.744 421.593 34.276 421.337 34.74C421.081 35.212 420.713 35.58 420.233 35.844C419.761 36.108 419.209 36.24 418.577 36.24C417.713 36.24 416.993 36.036 416.417 35.628C415.841 35.22 415.501 34.664 415.397 33.96H416.477C416.597 34.36 416.845 34.68 417.221 34.92C417.597 35.168 418.049 35.292 418.577 35.292C419.177 35.292 419.665 35.104 420.041 34.728C420.425 34.352 420.617 33.824 420.617 33.144V31.764C420.401 32.148 420.081 32.468 419.657 32.724C419.233 32.98 418.737 33.108 418.169 33.108C417.585 33.108 417.053 32.964 416.573 32.676C416.101 32.388 415.729 31.984 415.457 31.464C415.185 30.944 415.049 30.352 415.049 29.688C415.049 29.016 415.185 28.428 415.457 27.924C415.729 27.412 416.101 27.016 416.573 26.736C417.053 26.456 417.585 26.316 418.169 26.316ZM420.617 29.7C420.617 29.204 420.517 28.772 420.317 28.404C420.117 28.036 419.845 27.756 419.501 27.564C419.165 27.364 418.793 27.264 418.385 27.264C417.977 27.264 417.605 27.36 417.269 27.552C416.933 27.744 416.665 28.024 416.465 28.392C416.265 28.76 416.165 29.192 416.165 29.688C416.165 30.192 416.265 30.632 416.465 31.008C416.665 31.376 416.933 31.66 417.269 31.86C417.605 32.052 417.977 32.148 418.385 32.148C418.793 32.148 419.165 32.052 419.501 31.86C419.845 31.66 420.117 31.376 420.317 31.008C420.517 30.632 420.617 30.196 420.617 29.7ZM429.399 26.424V33H428.307V32.028C428.099 32.364 427.807 32.628 427.431 32.82C427.063 33.004 426.655 33.096 426.207 33.096C425.695 33.096 425.235 32.992 424.827 32.784C424.419 32.568 424.095 32.248 423.855 31.824C423.623 31.4 423.507 30.884 423.507 30.276V26.424H424.587V30.132C424.587 30.78 424.751 31.28 425.079 31.632C425.407 31.976 425.855 32.148 426.423 32.148C427.007 32.148 427.467 31.968 427.803 31.608C428.139 31.248 428.307 30.724 428.307 30.036V26.424H429.399ZM433.57 33.108C433.066 33.108 432.614 33.024 432.214 32.856C431.814 32.68 431.498 32.44 431.266 32.136C431.034 31.824 430.906 31.468 430.882 31.068H432.01C432.042 31.396 432.194 31.664 432.466 31.872C432.746 32.08 433.11 32.184 433.558 32.184C433.974 32.184 434.302 32.092 434.542 31.908C434.782 31.724 434.902 31.492 434.902 31.212C434.902 30.924 434.774 30.712 434.518 30.576C434.262 30.432 433.866 30.292 433.33 30.156C432.842 30.028 432.442 29.9 432.13 29.772C431.826 29.636 431.562 29.44 431.338 29.184C431.122 28.92 431.014 28.576 431.014 28.152C431.014 27.816 431.114 27.508 431.314 27.228C431.514 26.948 431.798 26.728 432.166 26.568C432.534 26.4 432.954 26.316 433.426 26.316C434.154 26.316 434.742 26.5 435.19 26.868C435.638 27.236 435.878 27.74 435.91 28.38H434.818C434.794 28.036 434.654 27.76 434.398 27.552C434.15 27.344 433.814 27.24 433.39 27.24C432.998 27.24 432.686 27.324 432.454 27.492C432.222 27.66 432.106 27.88 432.106 28.152C432.106 28.368 432.174 28.548 432.31 28.692C432.454 28.828 432.63 28.94 432.838 29.028C433.054 29.108 433.35 29.2 433.726 29.304C434.198 29.432 434.582 29.56 434.878 29.688C435.174 29.808 435.426 29.992 435.634 30.24C435.85 30.488 435.962 30.812 435.97 31.212C435.97 31.572 435.87 31.896 435.67 32.184C435.47 32.472 435.186 32.7 434.818 32.868C434.458 33.028 434.042 33.108 433.57 33.108ZM438.844 27.324V31.2C438.844 31.52 438.912 31.748 439.048 31.884C439.184 32.012 439.42 32.076 439.756 32.076H440.56V33H439.576C438.968 33 438.512 32.86 438.208 32.58C437.904 32.3 437.752 31.84 437.752 31.2V27.324H436.9V26.424H437.752V24.768H438.844V26.424H440.56V27.324H438.844Z" fill="#5C5C5C"/>
<path d="M342.613 58.524C344.021 57.3507 345.143 56.3753 345.979 55.598C346.815 54.806 347.511 53.9847 348.069 53.134C348.626 52.2833 348.905 51.4473 348.905 50.626C348.905 49.878 348.729 49.2913 348.377 48.866C348.025 48.4407 347.482 48.228 346.749 48.228C346.015 48.228 345.451 48.4773 345.055 48.976C344.659 49.46 344.453 50.1273 344.439 50.978H341.447C341.505 49.218 342.026 47.8833 343.009 46.974C344.006 46.0647 345.267 45.61 346.793 45.61C348.465 45.61 349.748 46.0573 350.643 46.952C351.537 47.832 351.985 48.998 351.985 50.45C351.985 51.594 351.677 52.6867 351.061 53.728C350.445 54.7693 349.741 55.6787 348.949 56.456C348.157 57.2187 347.123 58.1427 345.847 59.228H352.337V61.78H341.469V59.492L342.613 58.524ZM357.995 58.766L355.421 64.948H353.441L354.871 58.766H357.995ZM359.863 53.772C359.863 51.2347 360.318 49.2473 361.227 47.81C362.151 46.3727 363.677 45.654 365.803 45.654C367.93 45.654 369.448 46.3727 370.357 47.81C371.281 49.2473 371.743 51.2347 371.743 53.772C371.743 56.324 371.281 58.326 370.357 59.778C369.448 61.23 367.93 61.956 365.803 61.956C363.677 61.956 362.151 61.23 361.227 59.778C360.318 58.326 359.863 56.324 359.863 53.772ZM368.707 53.772C368.707 52.6867 368.634 51.7773 368.487 51.044C368.355 50.296 368.077 49.6873 367.651 49.218C367.241 48.7487 366.625 48.514 365.803 48.514C364.982 48.514 364.359 48.7487 363.933 49.218C363.523 49.6873 363.244 50.296 363.097 51.044C362.965 51.7773 362.899 52.6867 362.899 53.772C362.899 54.8867 362.965 55.8253 363.097 56.588C363.229 57.336 363.508 57.9447 363.933 58.414C364.359 58.8687 364.982 59.096 365.803 59.096C366.625 59.096 367.248 58.8687 367.673 58.414C368.099 57.9447 368.377 57.336 368.509 56.588C368.641 55.8253 368.707 54.8867 368.707 53.772ZM373.712 48.8V45.962H379.014V62H375.846V48.8H373.712ZM382.057 53.772C382.057 51.2347 382.511 49.2473 383.421 47.81C384.345 46.3727 385.87 45.654 387.997 45.654C390.123 45.654 391.641 46.3727 392.551 47.81C393.475 49.2473 393.937 51.2347 393.937 53.772C393.937 56.324 393.475 58.326 392.551 59.778C391.641 61.23 390.123 61.956 387.997 61.956C385.87 61.956 384.345 61.23 383.421 59.778C382.511 58.326 382.057 56.324 382.057 53.772ZM390.901 53.772C390.901 52.6867 390.827 51.7773 390.681 51.044C390.549 50.296 390.27 49.6873 389.845 49.218C389.434 48.7487 388.818 48.514 387.997 48.514C387.175 48.514 386.552 48.7487 386.127 49.218C385.716 49.6873 385.437 50.296 385.291 51.044C385.159 51.7773 385.093 52.6867 385.093 53.772C385.093 54.8867 385.159 55.8253 385.291 56.588C385.423 57.336 385.701 57.9447 386.127 58.414C386.552 58.8687 387.175 59.096 387.997 59.096C388.818 59.096 389.441 58.8687 389.867 58.414C390.292 57.9447 390.571 57.336 390.703 56.588C390.835 55.8253 390.901 54.8867 390.901 53.772ZM399.997 58.766L397.423 64.948H395.443L396.873 58.766H399.997ZM402.833 58.524C404.241 57.3507 405.363 56.3753 406.199 55.598C407.035 54.806 407.732 53.9847 408.289 53.134C408.847 52.2833 409.125 51.4473 409.125 50.626C409.125 49.878 408.949 49.2913 408.597 48.866C408.245 48.4407 407.703 48.228 406.969 48.228C406.236 48.228 405.671 48.4773 405.275 48.976C404.879 49.46 404.674 50.1273 404.659 50.978H401.667C401.726 49.218 402.247 47.8833 403.229 46.974C404.227 46.0647 405.488 45.61 407.013 45.61C408.685 45.61 409.969 46.0573 410.863 46.952C411.758 47.832 412.205 48.998 412.205 50.45C412.205 51.594 411.897 52.6867 411.281 53.728C410.665 54.7693 409.961 55.6787 409.169 56.456C408.377 57.2187 407.343 58.1427 406.067 59.228H412.557V61.78H401.689V59.492L402.833 58.524ZM417.182 53.508C415.715 52.7453 414.982 51.5647 414.982 49.966C414.982 49.174 415.18 48.4553 415.576 47.81C415.987 47.15 416.595 46.6293 417.402 46.248C418.223 45.852 419.221 45.654 420.394 45.654C421.567 45.654 422.557 45.852 423.364 46.248C424.185 46.6293 424.794 47.15 425.19 47.81C425.601 48.4553 425.806 49.174 425.806 49.966C425.806 50.7727 425.608 51.484 425.212 52.1C424.816 52.7013 424.288 53.1707 423.628 53.508C424.435 53.86 425.065 54.3733 425.52 55.048C425.975 55.7227 426.202 56.522 426.202 57.446C426.202 58.4433 425.945 59.316 425.432 60.064C424.933 60.7973 424.244 61.362 423.364 61.758C422.484 62.154 421.494 62.352 420.394 62.352C419.294 62.352 418.304 62.154 417.424 61.758C416.559 61.362 415.869 60.7973 415.356 60.064C414.857 59.316 414.608 58.4433 414.608 57.446C414.608 56.522 414.835 55.7227 415.29 55.048C415.745 54.3587 416.375 53.8453 417.182 53.508ZM422.814 50.406C422.814 49.6873 422.594 49.13 422.154 48.734C421.729 48.338 421.142 48.14 420.394 48.14C419.661 48.14 419.074 48.338 418.634 48.734C418.209 49.13 417.996 49.6947 417.996 50.428C417.996 51.088 418.216 51.616 418.656 52.012C419.111 52.408 419.69 52.606 420.394 52.606C421.098 52.606 421.677 52.408 422.132 52.012C422.587 51.6013 422.814 51.066 422.814 50.406ZM420.394 54.85C419.558 54.85 418.876 55.0627 418.348 55.488C417.835 55.9133 417.578 56.522 417.578 57.314C417.578 58.0473 417.827 58.6487 418.326 59.118C418.839 59.5727 419.529 59.8 420.394 59.8C421.259 59.8 421.941 59.5653 422.44 59.096C422.939 58.6267 423.188 58.0327 423.188 57.314C423.188 56.5367 422.931 55.9353 422.418 55.51C421.905 55.07 421.23 54.85 420.394 54.85ZM438.843 48.294L432.991 62H429.867L435.763 48.646H428.239V46.006H438.843V48.294Z" fill="#181818"/>
<defs>
<filter id="filter0_dd_0_108" x="0.215321" y="64" width="418.894" height="104.526" filterUnits="userSpaceOnUse" color-interpolation-filters="sRGB">
<feFlood flood-opacity="0" result="BackgroundImageFix"/>
<feColorMatrix in="SourceAlpha" type="matrix" values="0 0 0 0 0 0 0 0 0 0 0 0 0 0 0 0 0 0 127 0" result="hardAlpha"/>
<feOffset dy="12.8"/>
<feGaussianBlur stdDeviation="14.4"/>
<feColorMatrix type="matrix" values="0 0 0 0 0.176471 0 0 0 0 0.356863 0 0 0 0 1 0 0 0 0.22 0"/>
<feBlend mode="normal" in2="BackgroundImageFix" result="effect1_dropShadow_0_108"/>
<feColorMatrix in="SourceAlpha" type="matrix" values="0 0 0 0 0 0 0 0 0 0 0 0 0 0 0 0 0 0 127 0" result="hardAlpha"/>
<feOffset dy="2.4"/>
<feGaussianBlur stdDeviation="3.7"/>
<feColorMatrix type="matrix" values="0 0 0 0 0.176471 0 0 0 0 0.356863 0 0 0 0 1 0 0 0 0.24 0"/>
<feBlend mode="normal" in2="effect1_dropShadow_0_108" result="effect2_dropShadow_0_108"/>
<feBlend mode="normal" in="SourceGraphic" in2="effect2_dropShadow_0_108" result="shape"/>
</filter>
<filter id="filter1_dd_0_108" x="363.314" y="68" width="52.8" height="52.8" filterUnits="userSpaceOnUse" color-interpolation-filters="sRGB">
<feFlood flood-opacity="0" result="BackgroundImageFix"/>
<feColorMatrix in="SourceAlpha" type="matrix" values="0 0 0 0 0 0 0 0 0 0 0 0 0 0 0 0 0 0 127 0" result="hardAlpha"/>
<feOffset dy="6.4"/>
<feGaussianBlur stdDeviation="7.2"/>
<feColorMatrix type="matrix" values="0 0 0 0 0 0 0 0 0 0 0 0 0 0 0 0 0 0 0.13 0"/>
<feBlend mode="normal" in2="BackgroundImageFix" result="effect1_dropShadow_0_108"/>
<feColorMatrix in="SourceAlpha" type="matrix" values="0 0 0 0 0 0 0 0 0 0 0 0 0 0 0 0 0 0 127 0" result="hardAlpha"/>
<feOffset dy="1.2"/>
<feGaussianBlur stdDeviation="1.8"/>
<feColorMatrix type="matrix" values="0 0 0 0 0 0 0 0 0 0 0 0 0 0 0 0 0 0 0.11 0"/>
<feBlend mode="normal" in2="effect1_dropShadow_0_108" result="effect2_dropShadow_0_108"/>
<feBlend mode="normal" in="SourceGraphic" in2="effect2_dropShadow_0_108" result="shape"/>
</filter>
<filter id="filter2_dd_0_108" x="314" y="0" width="152" height="112" filterUnits="userSpaceOnUse" color-interpolation-filters="sRGB">
<feFlood flood-opacity="0" result="BackgroundImageFix"/>
<feColorMatrix in="SourceAlpha" type="matrix" values="0 0 0 0 0 0 0 0 0 0 0 0 0 0 0 0 0 0 127 0" result="hardAlpha"/>
<feOffset dy="8"/>
<feGaussianBlur stdDeviation="8"/>
<feColorMatrix type="matrix" values="0 0 0 0 0.196487 0 0 0 0 0.196487 0 0 0 0 0.279476 0 0 0 0.06 0"/>
<feBlend mode="multiply" in2="BackgroundImageFix" result="effect1_dropShadow_0_108"/>
<feColorMatrix in="SourceAlpha" type="matrix" values="0 0 0 0 0 0 0 0 0 0 0 0 0 0 0 0 0 0 127 0" result="hardAlpha"/>
<feOffset dy="8"/>
<feGaussianBlur stdDeviation="4"/>
<feColorMatrix type="matrix" values="0 0 0 0 0.196487 0 0 0 0 0.196487 0 0 0 0 0.279476 0 0 0 0.08 0"/>
<feBlend mode="multiply" in2="effect1_dropShadow_0_108" result="effect2_dropShadow_0_108"/>
<feBlend mode="normal" in="SourceGraphic" in2="effect2_dropShadow_0_108" result="shape"/>
</filter>
</defs>
</svg>
