<svg width="187" height="194" viewBox="0 0 187 194" fill="none" xmlns="http://www.w3.org/2000/svg">
<path d="M70 54C79.1925 54 88.2951 55.8106 96.7878 59.3284C105.281 62.8463 112.997 68.0024 119.497 74.5025C125.998 81.0026 131.154 88.7194 134.672 97.2122C138.189 105.705 140 114.807 140 124C140 133.193 138.189 142.295 134.672 150.788C131.154 159.281 125.998 166.997 119.497 173.497C112.997 179.998 105.281 185.154 96.7878 188.672C88.295 192.189 79.1925 194 70 194L70 176.5C76.8944 176.5 83.7213 175.142 90.0909 172.504C96.4605 169.865 102.248 165.998 107.123 161.123C111.998 156.248 115.865 150.46 118.504 144.091C121.142 137.721 122.5 130.894 122.5 124C122.5 117.106 121.142 110.279 118.504 103.909C115.865 97.5395 111.998 91.752 107.123 86.8769C102.248 82.0018 96.4605 78.1347 90.0909 75.4963C83.7213 72.858 76.8944 71.5 70 71.5V54Z" fill="#2D5BFF"/>
<path d="M70 194C60.8075 194 51.7049 192.189 43.2122 188.672C34.7194 185.154 27.0026 179.998 20.5025 173.497C14.0024 166.997 8.84626 159.281 5.32843 150.788C1.8106 142.295 -8.03636e-07 133.193 0 124H17.5C17.5 130.894 18.858 137.721 21.4963 144.091C24.1347 150.46 28.0018 156.248 32.8769 161.123C37.752 165.998 43.5395 169.865 49.9091 172.504C56.2787 175.142 63.1056 176.5 70 176.5V194Z" fill="#6284FD"/>
<path d="M0 124C1.62302e-06 105.435 7.37498 87.6301 20.5025 74.5025C33.6301 61.375 51.4348 54 70 54V71.5C56.0761 71.5 42.7226 77.0312 32.8769 86.8769C23.0312 96.7225 17.5 110.076 17.5 124H0Z" fill="#96ADFF"/>
<g filter="url(#filter0_dd_0_152)">
<path fill-rule="evenodd" clip-rule="evenodd" d="M124.723 86.4891C123.611 88.5036 121.807 88.5036 120.695 86.4891L119.146 83.8202C118.303 82.3688 117.882 81.6431 117.294 81.1154C116.773 80.6485 116.161 80.2959 115.496 80.0803C114.744 79.8367 113.905 79.8367 112.227 79.8367H86.1879C82.2976 79.8367 80.8869 79.2684 79.4647 78.2012C78.0425 77.134 76.9263 75.568 76.1657 73.5725C75.4051 71.5771 75 69.5978 75 64.1395V23.6973C75 18.239 75.4051 16.2597 76.1657 14.2642C76.9263 12.2687 78.0425 10.7027 79.4647 9.63551C80.8869 8.56832 82.2976 8 86.1879 8H159.812C163.702 8 165.113 8.56832 166.535 9.63551C167.958 10.7027 169.074 12.2687 169.834 14.2642C170.595 16.2597 171 18.239 171 23.6973V64.1395C171 69.5978 170.595 71.5771 169.834 73.5725C169.074 75.568 167.958 77.134 166.535 78.2012C165.113 79.2684 163.702 79.8367 159.812 79.8367H136.277C134.401 79.8367 133.463 79.8367 132.596 79.9904C130.296 80.3983 128.212 81.5986 126.704 83.383C126.136 84.0551 125.665 84.8664 124.723 86.4891Z" fill="white"/>
</g>
<path d="M102.271 24.636V25.524H99.9912V33H98.8992V25.524H96.6072V24.636H102.271ZM110.527 24.636L107.371 33H106.111L102.955 24.636H104.119L106.747 31.848L109.375 24.636H110.527Z" fill="#5C5C5C"/>
<path d="M101.779 48.294L95.9273 62H92.8033L98.6993 48.646H91.1753V46.006H101.779V48.294ZM106.308 53.508C104.841 52.7453 104.108 51.5647 104.108 49.966C104.108 49.174 104.306 48.4553 104.702 47.81C105.113 47.15 105.721 46.6293 106.528 46.248C107.349 45.852 108.347 45.654 109.52 45.654C110.693 45.654 111.683 45.852 112.49 46.248C113.311 46.6293 113.92 47.15 114.316 47.81C114.727 48.4553 114.932 49.174 114.932 49.966C114.932 50.7727 114.734 51.484 114.338 52.1C113.942 52.7013 113.414 53.1707 112.754 53.508C113.561 53.86 114.191 54.3733 114.646 55.048C115.101 55.7227 115.328 56.522 115.328 57.446C115.328 58.4433 115.071 59.316 114.558 60.064C114.059 60.7973 113.37 61.362 112.49 61.758C111.61 62.154 110.62 62.352 109.52 62.352C108.42 62.352 107.43 62.154 106.55 61.758C105.685 61.362 104.995 60.7973 104.482 60.064C103.983 59.316 103.734 58.4433 103.734 57.446C103.734 56.522 103.961 55.7227 104.416 55.048C104.871 54.3587 105.501 53.8453 106.308 53.508ZM111.94 50.406C111.94 49.6873 111.72 49.13 111.28 48.734C110.855 48.338 110.268 48.14 109.52 48.14C108.787 48.14 108.2 48.338 107.76 48.734C107.335 49.13 107.122 49.6947 107.122 50.428C107.122 51.088 107.342 51.616 107.782 52.012C108.237 52.408 108.816 52.606 109.52 52.606C110.224 52.606 110.803 52.408 111.258 52.012C111.713 51.6013 111.94 51.066 111.94 50.406ZM109.52 54.85C108.684 54.85 108.002 55.0627 107.474 55.488C106.961 55.9133 106.704 56.522 106.704 57.314C106.704 58.0473 106.953 58.6487 107.452 59.118C107.965 59.5727 108.655 59.8 109.52 59.8C110.385 59.8 111.067 59.5653 111.566 59.096C112.065 58.6267 112.314 58.0327 112.314 57.314C112.314 56.5367 112.057 55.9353 111.544 55.51C111.031 55.07 110.356 54.85 109.52 54.85Z" fill="#181818"/>
<defs>
<filter id="filter0_dd_0_152" x="59" y="0" width="128" height="112" filterUnits="userSpaceOnUse" color-interpolation-filters="sRGB">
<feFlood flood-opacity="0" result="BackgroundImageFix"/>
<feColorMatrix in="SourceAlpha" type="matrix" values="0 0 0 0 0 0 0 0 0 0 0 0 0 0 0 0 0 0 127 0" result="hardAlpha"/>
<feOffset dy="8"/>
<feGaussianBlur stdDeviation="8"/>
<feColorMatrix type="matrix" values="0 0 0 0 0.196487 0 0 0 0 0.196487 0 0 0 0 0.279476 0 0 0 0.06 0"/>
<feBlend mode="multiply" in2="BackgroundImageFix" result="effect1_dropShadow_0_152"/>
<feColorMatrix in="SourceAlpha" type="matrix" values="0 0 0 0 0 0 0 0 0 0 0 0 0 0 0 0 0 0 127 0" result="hardAlpha"/>
<feOffset dy="8"/>
<feGaussianBlur stdDeviation="4"/>
<feColorMatrix type="matrix" values="0 0 0 0 0.196487 0 0 0 0 0.196487 0 0 0 0 0.279476 0 0 0 0.08 0"/>
<feBlend mode="multiply" in2="effect1_dropShadow_0_152" result="effect2_dropShadow_0_152"/>
<feBlend mode="normal" in="SourceGraphic" in2="effect2_dropShadow_0_152" result="shape"/>
</filter>
</defs>
</svg>
