<svg width="160" height="160" viewBox="0 0 160 160" fill="none" xmlns="http://www.w3.org/2000/svg">
<path d="M58.2933 55.9778C57.8536 55.9777 57.4238 55.8472 57.0583 55.6027C56.6927 55.3582 56.408 55.0108 56.24 54.6044L53.5378 48.0778C53.4203 47.8071 53.358 47.5157 53.3543 47.2207C53.3507 46.9256 53.4059 46.6328 53.5166 46.3593C53.6274 46.0858 53.7914 45.8371 53.9993 45.6277C54.2072 45.4183 54.4547 45.2524 54.7274 45.1397C55.0001 45.0269 55.2925 44.9696 55.5875 44.9711C55.8826 44.9726 56.1744 45.0328 56.4459 45.1483C56.7175 45.2637 56.9633 45.4321 57.1691 45.6436C57.3749 45.8551 57.5365 46.1054 57.6444 46.38L60.3467 52.9067C60.4862 53.2442 60.5404 53.611 60.5044 53.9745C60.4684 54.338 60.3433 54.687 60.1403 54.9907C59.9373 55.2943 59.6625 55.5433 59.3404 55.7154C59.0182 55.8876 58.6586 55.9777 58.2933 55.9778ZM38.92 89.6911C38.4057 89.6914 37.9072 89.5133 37.5095 89.1872C37.1118 88.8611 36.8396 88.4071 36.7392 87.9027C36.6388 87.3983 36.7164 86.8747 36.9589 86.4212C37.2014 85.9676 37.5937 85.6122 38.0689 85.4156L44.5978 82.7133C45.1424 82.4876 45.7543 82.4875 46.299 82.7129C46.8437 82.9384 47.2765 83.371 47.5022 83.9156C47.7279 84.4601 47.7281 85.0721 47.5026 85.6168C47.2772 86.1615 46.8446 86.5943 46.3 86.82L39.7711 89.5222C39.5013 89.6342 39.2121 89.6916 38.92 89.6911ZM89.3067 68.8244C88.7914 68.826 88.2916 68.6485 87.8928 68.3222C87.494 67.9959 87.2209 67.5412 87.1204 67.0359C87.0198 66.5305 87.098 66.0059 87.3416 65.5518C87.5851 65.0978 87.9789 64.7424 88.4556 64.5467L94.9822 61.8444C95.5215 61.6453 96.1169 61.6626 96.6437 61.8928C97.1705 62.1231 97.5877 62.5483 97.8078 63.0794C98.0279 63.6104 98.0339 64.2061 97.8245 64.7415C97.615 65.2768 97.2065 65.7104 96.6844 65.9511L90.1578 68.6533C89.8881 68.766 89.5989 68.8242 89.3067 68.8244ZM76.46 55.9778C76.0944 55.9779 75.7345 55.8878 75.4121 55.7155C75.0897 55.5432 74.8147 55.294 74.6117 54.9901C74.4086 54.6861 74.2836 54.3367 74.2479 53.9729C74.2121 53.6091 74.2667 53.2421 74.4067 52.9044L77.1089 46.3778C77.2169 46.1032 77.3785 45.8528 77.5842 45.6414C77.79 45.4299 78.0358 45.2615 78.3074 45.1461C78.5789 45.0306 78.8707 44.9704 79.1658 44.9689C79.4609 44.9674 79.7533 45.0247 80.0259 45.1375C80.2986 45.2502 80.5461 45.4161 80.754 45.6255C80.9619 45.8349 81.126 46.0836 81.2367 46.3571C81.3475 46.6306 81.4026 46.9234 81.399 47.2185C81.3953 47.5135 81.333 47.8049 81.2156 48.0756L78.5133 54.6022C78.3457 55.009 78.0611 55.3569 77.6955 55.6018C77.33 55.8467 76.9 55.9775 76.46 55.9778ZM55.5911 106.362C55.2256 106.362 54.8656 106.272 54.5432 106.1C54.2208 105.928 53.9459 105.678 53.7428 105.375C53.5397 105.071 53.4147 104.721 53.379 104.357C53.3432 103.994 53.3978 103.627 53.5378 103.289L56.24 96.76C56.3518 96.4904 56.5156 96.2454 56.722 96.039C56.9285 95.8327 57.1735 95.669 57.4432 95.5574C57.7129 95.4457 58.002 95.3883 58.2939 95.3884C58.5858 95.3884 58.8748 95.446 59.1444 95.5578C59.4141 95.6695 59.6591 95.8333 59.8654 96.0398C60.0718 96.2462 60.2354 96.4913 60.3471 96.761C60.4587 97.0307 60.5161 97.3198 60.5161 97.6117C60.516 97.9036 60.4584 98.1926 60.3467 98.4622L57.6444 104.991C57.4761 105.397 57.1912 105.744 56.8257 105.988C56.4602 106.232 56.0306 106.362 55.5911 106.362ZM45.4467 68.8244C45.1544 68.8242 44.8652 68.766 44.5956 68.6533L38.0667 65.9511C37.5221 65.7254 37.0895 65.2926 36.864 64.7479C36.7524 64.4782 36.695 64.1891 36.695 63.8972C36.6951 63.6053 36.7527 63.3163 36.8644 63.0467C36.9762 62.777 37.14 62.532 37.3464 62.3257C37.5529 62.1193 37.798 61.9557 38.0677 61.844C38.6124 61.6186 39.2243 61.6187 39.7689 61.8444L46.2978 64.5467C46.7744 64.7424 47.1682 65.0978 47.4117 65.5518C47.6553 66.0059 47.7335 66.5305 47.6329 67.0359C47.5324 67.5412 47.2593 67.9959 46.8605 68.3222C46.4617 68.6485 45.9619 68.826 45.4467 68.8244Z" fill="#FFAA45"/>
<path d="M67.3756 94.1089C77.5511 94.1089 85.8 85.86 85.8 75.6845C85.8 65.5089 77.5511 57.26 67.3756 57.26C57.2 57.26 48.9511 65.5089 48.9511 75.6845C48.9511 85.86 57.2 94.1089 67.3756 94.1089Z" fill="#FFAA45"/>
<path d="M67.3711 61.7C70.1385 61.6946 72.845 62.5126 75.1462 64.05C77.4473 65.5873 79.239 67.7746 80.2933 70.3333C81.1695 72.457 81.5094 74.7637 81.2831 77.0498C81.0568 79.3359 80.2712 81.5312 78.9957 83.4419C77.7202 85.3525 75.9939 86.9198 73.9693 88.0054C71.9447 89.091 69.684 89.6616 67.3867 89.6666C64.6192 89.6721 61.9127 88.854 59.6116 87.3167C57.3105 85.7793 55.5188 83.5921 54.4644 81.0333C53.757 79.3384 53.3927 77.52 53.3927 75.6833C53.3927 73.8467 53.757 72.0282 54.4644 70.3333C55.1628 68.6347 56.1912 67.0915 57.49 65.7931C58.7888 64.4947 60.3323 63.4667 62.0311 62.7689C63.723 62.0633 65.538 61.7 67.3711 61.7Z" fill="#FFDA69"/>
<path d="M98.4867 72.0311C94.7649 72.0368 91.1184 73.0794 87.9562 75.042C84.794 77.0047 82.2413 79.8096 80.5844 83.1422C76.4819 83.1797 72.5599 84.8345 69.6705 87.7472C66.7811 90.6599 65.1578 94.5951 65.1533 98.6978C65.1533 106.956 71.8711 112.602 78.1889 113.724C83.0689 114.591 88.6933 114.993 95.8933 114.993C103.051 114.993 107.698 114.947 112.849 114.016C121.944 112.373 123.302 105.922 123.302 102.224C123.302 98.3845 121.458 94.8533 118.478 92.6267C118.484 92.4289 118.487 92.2289 118.487 92.0311C118.487 81.0045 109.516 72.0311 98.4867 72.0311Z" fill="#868686"/>
<path d="M113.74 95.0867C114.192 92.8298 114.138 90.5006 113.581 88.2672C113.024 86.0338 111.978 83.9519 110.519 82.1715C109.06 80.3912 107.224 78.9568 105.144 77.9718C103.064 76.9868 100.791 76.4758 98.4889 76.4756C91.3022 76.4756 85.2711 81.3556 83.4845 87.9778C82.5805 87.7297 81.6485 87.5983 80.7111 87.5867C77.7643 87.5867 74.9381 88.7573 72.8544 90.8411C70.7706 92.9248 69.6 95.751 69.6 98.6978C69.6 104.836 74.8022 108.609 78.9689 109.347C83.1356 110.087 88.3956 110.547 95.8956 110.547C103.396 110.547 107.44 110.476 112.06 109.64C116.68 108.804 118.858 106.411 118.858 102.222C118.854 100.648 118.359 99.114 117.442 97.8347C116.524 96.5554 115.23 95.5946 113.74 95.0867Z" fill="#E6E6E6"/>
<path d="M80.7089 92.22C81.6733 92.22 82.5911 92.3822 83.4822 92.6111C84.3713 89.3113 86.3229 86.3964 89.0351 84.3172C91.7474 82.238 95.0692 81.1104 98.4867 81.1089C106.289 81.1089 112.727 86.8556 113.851 94.3422C113.964 93.5867 114.042 92.82 114.042 92.0311C114.042 87.9056 112.403 83.9489 109.486 81.0317C106.569 78.1145 102.612 76.4756 98.4867 76.4756C91.3 76.4756 85.2689 81.3556 83.4822 87.9778C82.5782 87.7297 81.6462 87.5983 80.7089 87.5867C77.762 87.5867 74.9359 88.7573 72.8521 90.8411C70.7684 92.9248 69.5978 95.751 69.5978 98.6978C69.5978 99.5 69.6956 100.258 69.86 100.978C70.3964 98.4986 71.7653 96.2778 73.739 94.6845C75.7127 93.0912 78.1723 92.2215 80.7089 92.22Z" fill="white"/>
</svg>
