<svg width="40" height="40" viewBox="0 0 40 40" fill="none" xmlns="http://www.w3.org/2000/svg">
<path d="M30.5812 27.4312C30.0562 27.4312 29.625 27.8562 29.625 28.3812C29.625 28.9062 30.0562 29.3312 30.5812 29.3312C30.8332 29.3312 31.0748 29.2312 31.253 29.053C31.4312 28.8748 31.5312 28.6332 31.5312 28.3812C31.5312 28.1293 31.4312 27.8877 31.253 27.7095C31.0748 27.5313 30.8332 27.4312 30.5812 27.4312ZM30.5812 26.8187C29.7125 26.8187 29.0125 27.5187 29.0125 28.3812C29.0125 29.2437 29.7125 29.95 30.5812 29.95C31.4437 29.95 32.1437 29.2437 32.1437 28.3812C32.1437 27.5187 31.4437 26.8187 30.5812 26.8187Z" fill="black"/>
<path d="M30.8563 19.35C32.7875 17.6937 34.9688 15.8312 39.3875 15.65V14.55L39.0625 14.5625C34.3313 14.7937 32.3188 16.4312 30.1938 18.1562C28.6 19.45 26.9563 20.7812 24.1375 21.5937C24.0063 21.6312 23.8813 21.7875 23.8813 21.9125V22.3062H24.4375C24.8337 22.3062 25.2136 22.4636 25.4937 22.7438C25.7739 23.0239 25.9313 23.4038 25.9313 23.8C25.9313 24.1962 25.7739 24.5761 25.4937 24.8562C25.2136 25.1364 24.8337 25.2937 24.4375 25.2937H23.875V25.4875C23.875 26.45 24.125 28.075 25.7938 28.075H26.7063C26.8625 26.075 28.5375 24.4937 30.5813 24.4937C32.6188 24.4937 34.2938 26.075 34.45 28.075L39.3875 28.0687V21.6062H28.825C28.7579 21.607 28.6926 21.5852 28.6393 21.5444C28.5861 21.5036 28.548 21.4462 28.5313 21.3812C28.4938 21.25 28.55 21.1125 28.6625 21.0375C29.4375 20.5625 30.125 19.975 30.8563 19.35ZM31.2563 19.8125C30.775 20.2312 30.3063 20.625 29.8188 20.9937H39.3875V16.2687C35.2063 16.4437 33.1938 18.1562 31.2563 19.8125ZM30.5813 26.8187C29.7125 26.8187 29.0125 27.5187 29.0125 28.3812C29.0125 29.2437 29.7125 29.95 30.5813 29.95C31.4438 29.95 32.1438 29.2437 32.1438 28.3812C32.1438 27.5187 31.4438 26.8187 30.5813 26.8187ZM24.4375 22.9187H23.8813L23.875 24.6812H24.4375C24.925 24.6812 25.3188 24.2875 25.3188 23.8C25.3188 23.3125 24.925 22.9187 24.4375 22.9187ZM39.9063 14C39.8752 13.9715 39.8387 13.9496 39.799 13.9356C39.7592 13.9216 39.717 13.9159 39.675 13.9187L39.025 13.9437C34.1 14.1937 31.9188 15.9625 29.8063 17.6812C28.2625 18.9312 26.6688 20.225 23.9688 21C23.575 21.1187 23.2625 21.5187 23.2625 21.9125V24.9812L23.2563 24.9875C23.2563 24.9937 23.2625 24.9937 23.2625 25V25.4875C23.2625 27.525 24.1813 28.6937 25.7938 28.6937H26.7063C26.8688 30.6875 28.5375 32.2687 30.5813 32.2687C32.6188 32.2687 34.2938 30.6875 34.45 28.6937L39.6938 28.6875C39.8625 28.6875 40 28.55 40 28.375V14.225C40 14.1437 39.9688 14.0625 39.9063 14ZM30.5813 31.6562C28.7813 31.6562 27.3188 30.1937 27.3063 28.4C27.3125 28.3937 27.3125 28.3875 27.3125 28.3812C27.3125 28.375 27.3063 28.375 27.3063 28.3687C27.3188 26.5687 28.7813 25.1125 30.5813 25.1125C32.3813 25.1125 33.85 26.5812 33.85 28.3812C33.85 30.1875 32.3813 31.6562 30.5813 31.6562ZM30.5813 26.8187C29.7125 26.8187 29.0125 27.5187 29.0125 28.3812C29.0125 29.2437 29.7125 29.95 30.5813 29.95C31.4438 29.95 32.1438 29.2437 32.1438 28.3812C32.1438 27.5187 31.4438 26.8187 30.5813 26.8187Z" fill="black"/>
<path d="M30.5812 25.1125C28.7812 25.1125 27.3187 26.5688 27.3062 28.3688C27.3062 28.375 27.3125 28.375 27.3125 28.3813C27.3125 28.3875 27.3125 28.3938 27.3062 28.4C27.3187 30.1938 28.7812 31.6563 30.5812 31.6563C32.3812 31.6563 33.85 30.1875 33.85 28.3813C33.8483 27.5148 33.5034 26.6844 32.8908 26.0717C32.2781 25.4591 31.4477 25.1142 30.5812 25.1125ZM30.5812 29.95C29.7125 29.95 29.0125 29.2438 29.0125 28.3813C29.0125 27.5188 29.7125 26.8188 30.5812 26.8188C31.4437 26.8188 32.1437 27.5188 32.1437 28.3813C32.1437 29.2438 31.4437 29.95 30.5812 29.95Z" fill="#787878"/>
<path d="M30.5812 25.1125C28.7812 25.1125 27.3187 26.5688 27.3062 28.3688C27.3062 28.375 27.3125 28.375 27.3125 28.3813C27.3125 28.3875 27.3125 28.3938 27.3062 28.4C27.3187 30.1938 28.7812 31.6563 30.5812 31.6563C32.3812 31.6563 33.85 30.1875 33.85 28.3813C33.8483 27.5148 33.5034 26.6844 32.8908 26.0717C32.2781 25.4591 31.4477 25.1142 30.5812 25.1125ZM30.5812 30.8C29.25 30.8 28.1687 29.7188 28.1625 28.3938C28.1687 28.3938 28.1687 28.3875 28.1687 28.3813C28.1687 28.375 28.1625 28.375 28.1625 28.375C28.1656 27.7356 28.4219 27.1235 28.8752 26.6726C29.3284 26.2216 29.9419 25.9686 30.5812 25.9688C31.9062 25.9688 32.9937 27.0563 32.9937 28.3813C32.9937 29.7125 31.9062 30.8 30.5812 30.8Z" fill="#666666"/>
<path d="M31.5312 28.3813C31.5312 28.9063 31.1062 29.3313 30.5812 29.3313C30.0562 29.3313 29.625 28.9063 29.625 28.3813C29.625 27.8563 30.0562 27.4313 30.5812 27.4313C31.1062 27.4313 31.5312 27.8563 31.5312 28.3813Z" fill="#EDEDED"/>
<path d="M25.3187 23.8C25.3187 24.2875 24.925 24.6812 24.4375 24.6812H23.875L23.8812 22.9187H24.4375C24.925 22.9187 25.3187 23.3125 25.3187 23.8Z" fill="#EA625C"/>
<path d="M39.3875 16.2688V20.9938H29.8188C30.3063 20.625 30.775 20.2313 31.2563 19.8125C32.4813 18.7688 33.7313 17.7 35.5438 17.0125C35.7375 16.9313 35.9438 16.8625 36.15 16.7938C37.0688 16.5125 38.1313 16.3188 39.3875 16.2688Z" fill="#A9D7F2"/>
<path d="M28.6625 21.0375C28.55 21.1125 28.4938 21.25 28.5313 21.3813C28.5688 21.5188 28.6875 21.6063 28.825 21.6063H39.3875V28.0688L34.45 28.075C34.2937 26.075 32.6187 24.4938 30.5812 24.4938C28.5375 24.4938 26.8625 26.075 26.7062 28.075H25.7937C24.125 28.075 23.875 26.45 23.875 25.4875V25.2938H24.4375C24.8337 25.2938 25.2136 25.1364 25.4937 24.8562C25.7739 24.5761 25.9313 24.1962 25.9313 23.8C25.9313 23.4038 25.7739 23.0239 25.4937 22.7438C25.2136 22.4636 24.8337 22.3063 24.4375 22.3063H23.8812V21.9125C23.8812 21.7875 24.0062 21.6313 24.1375 21.5938C26.9562 20.7813 28.6 19.45 30.1938 18.1563C32.3188 16.4313 34.3312 14.7938 39.0625 14.5625L39.3875 14.55V15.65C34.9688 15.8313 32.7875 17.6938 30.8562 19.35C30.125 19.975 29.4375 20.5625 28.6625 21.0375Z" fill="#47B28E"/>
<path d="M39.3875 14.55V15.4313L39.0625 15.4438C34.3313 15.675 32.3188 17.3125 30.1938 19.0375C28.7 20.25 27.1563 21.5 24.6438 22.3188C24.5813 22.3125 24.5063 22.3063 24.4375 22.3063H23.8813V21.9125C23.8813 21.7875 24.0063 21.6313 24.1375 21.5938C26.9563 20.7813 28.6 19.45 30.1938 18.1563C32.3188 16.4313 34.3313 14.7938 39.0625 14.5625L39.3875 14.55Z" fill="#53BF9F"/>
<path d="M25.7937 26.3687H27.2562C26.95 26.8687 26.75 27.45 26.7062 28.075H25.7937C24.4812 28.075 24.05 27.0687 23.9187 26.175C23.8898 25.947 23.8752 25.7174 23.875 25.4875V25.2937H24.1375C24.3937 25.8875 24.8875 26.3687 25.7937 26.3687ZM39.3875 26.3625V28.0687L34.45 28.075C34.4 27.45 34.2063 26.8687 33.9 26.3687L39.3875 26.3625Z" fill="#3BA580"/>
<path d="M13.7938 26.8187C12.9313 26.8187 12.225 27.5187 12.225 28.3812C12.225 29.2437 12.9313 29.95 13.7938 29.95C14.6563 29.95 15.3625 29.2437 15.3625 28.3812C15.3625 27.5187 14.6563 26.8187 13.7938 26.8187ZM13.7938 29.3312C13.667 29.3345 13.5409 29.3124 13.4228 29.2662C13.3047 29.22 13.1971 29.1506 13.1062 29.0621C13.0154 28.9736 12.9432 28.8678 12.8939 28.751C12.8446 28.6342 12.8191 28.5087 12.8191 28.3819C12.819 28.2551 12.8444 28.1295 12.8936 28.0127C12.9429 27.8958 13.015 27.79 13.1058 27.7015C13.1966 27.6129 13.3041 27.5435 13.4222 27.4972C13.5402 27.4509 13.6664 27.4287 13.7931 27.4319C14.0408 27.4381 14.2762 27.5409 14.4492 27.7183C14.6221 27.8956 14.719 28.1335 14.7191 28.3813C14.7192 28.629 14.6225 28.867 14.4496 29.0444C14.2768 29.2219 14.0414 29.3248 13.7938 29.3312ZM25.5625 16.4375C25.5813 16.5312 25.5563 16.625 25.4938 16.7L22.8313 19.7062C22.7188 19.8312 22.525 19.8437 22.3938 19.7312C22.3334 19.6773 22.297 19.6016 22.2923 19.5208C22.2876 19.44 22.3151 19.3606 22.3688 19.3L24.7688 16.5875L22.825 15.6125C22.7583 15.5774 22.7061 15.52 22.6775 15.4503C22.649 15.3806 22.6459 15.303 22.6688 15.2312L24.0938 11.2187L20.85 12.3437C20.7842 12.3653 20.7132 12.3647 20.6478 12.3421C20.5823 12.3196 20.526 12.2762 20.4875 12.2187L18.2375 8.74375L16.95 12.6375C16.9063 12.775 16.7688 12.8625 16.6313 12.85L12.6313 12.4875L14.7563 15.8625C14.8063 15.9375 14.8188 16.025 14.7938 16.1062C14.7827 16.1477 14.7631 16.1863 14.7362 16.2197C14.7093 16.2531 14.6757 16.2804 14.6375 16.3L11.6875 17.775L16.2875 20.3937C16.4375 20.475 16.4875 20.6625 16.4 20.8125C16.3806 20.848 16.3541 20.8793 16.3223 20.9043C16.2904 20.9294 16.2538 20.9477 16.2147 20.9582C16.1755 20.9687 16.1347 20.9712 16.0946 20.9655C16.0544 20.9598 16.0159 20.946 15.9813 20.925L10.8813 18.025C10.8339 17.9963 10.7948 17.9559 10.7674 17.9078C10.7401 17.8597 10.7255 17.8053 10.725 17.75C10.7313 17.6312 10.7938 17.5312 10.9 17.4812L14.0563 15.9L11.7813 12.2875C11.7512 12.2389 11.7347 12.183 11.7336 12.1259C11.7325 12.0687 11.7468 12.0122 11.775 11.9625C11.8375 11.8625 11.95 11.8062 12.0688 11.8187L16.4438 12.2125L17.8563 7.94375C17.8938 7.83125 17.9938 7.75 18.1125 7.7375C18.225 7.71875 18.3438 7.775 18.4063 7.875L20.875 11.6812L24.4938 10.4312C24.6063 10.3875 24.7313 10.4187 24.8125 10.5C24.9 10.5875 24.925 10.7125 24.8875 10.825L23.3438 15.1812L25.4 16.2187C25.4875 16.2625 25.55 16.3437 25.5625 16.4375Z" fill="black"/>
<path d="M21.4937 26.2625L21.4625 25.7375C21.3813 24.4187 21.05 22.8375 19.1187 22.2937C15.2438 21.2 10.8938 20.7375 10.1437 20.6625C9.99375 20.5125 9.8375 20.35 9.66875 20.175C7.925 18.3937 5.3 15.7 0.38125 14.5062C0.336242 14.4933 0.288746 14.4917 0.242962 14.5015C0.197178 14.5113 0.154517 14.5323 0.11875 14.5625C0.04375 14.6187 0 14.7062 0 14.8V28.375C0 28.4562 0.03125 28.5375 0.09375 28.5937C0.15 28.65 0.225 28.6812 0.30625 28.6812L9.925 28.675C10.075 30.6812 11.75 32.2687 13.7937 32.2687C15.8375 32.2687 17.5125 30.6812 17.6688 28.675L19.6063 28.6687C20.1375 28.6687 20.6812 28.4375 21.0562 28.0375C21.3812 27.7 21.55 27.2812 21.525 26.85C21.5125 26.6625 21.5 26.4625 21.4937 26.2625ZM18.5063 22.7687C18.6562 22.8062 18.8062 22.8437 18.95 22.8875C20.0312 23.1937 20.4875 23.8812 20.6938 24.6937L19.6562 24.4375C18.8875 24.2437 18.3938 23.7 18.4625 23.1187L18.5063 22.7687ZM0.61875 16.9687C3.975 18.05 6.00625 20.0437 6.8125 20.9875H0.61875V16.9687ZM17.0625 28.375V28.3812C17.0625 30.1875 15.6 31.6562 13.7937 31.6562C11.9875 31.6562 10.525 30.1875 10.525 28.3812C10.525 26.5812 11.9875 25.1125 13.7937 25.1125C15.5938 25.1125 17.0562 26.5687 17.0625 28.375C17.0625 28.3687 17.0625 28.3687 17.0625 28.375ZM20.6125 27.6125C20.3562 27.8875 19.9688 28.0562 19.6063 28.0562L17.6625 28.0625C17.5 26.0687 15.8313 24.4937 13.7937 24.4937C11.7625 24.4937 10.0875 26.0687 9.925 28.0625L0.61875 28.0687V21.6062H7.44375C7.5625 21.6062 7.66875 21.5375 7.71875 21.4375C7.775 21.3375 7.7625 21.2125 7.7 21.1187C6.5875 19.55 4.06875 17.3812 0.61875 16.3187V15.2C5.11875 16.3937 7.58125 18.9187 9.23125 20.6062C9.425 20.8125 9.6125 21 9.7875 21.175C9.8375 21.225 9.90625 21.2562 9.975 21.2625C10.0188 21.2687 14.0188 21.6375 17.9062 22.6125L17.85 23.0437C17.75 23.9437 18.4312 24.7625 19.5062 25.0375L20.8125 25.3562L20.85 25.775L20.875 26.3L20.9125 26.8875C20.925 27.1375 20.8188 27.4 20.6125 27.6125Z" fill="black"/>
<path d="M13.7937 25.1125C11.9875 25.1125 10.525 26.5813 10.525 28.3813C10.525 30.1875 11.9875 31.6563 13.7937 31.6563C15.6 31.6563 17.0625 30.1875 17.0625 28.3813V28.3688C17.0592 27.504 16.7133 26.6758 16.1007 26.0655C15.488 25.4552 14.6585 25.1125 13.7937 25.1125ZM13.7937 29.95C12.9312 29.95 12.225 29.2438 12.225 28.3813C12.225 27.5188 12.9312 26.8188 13.7937 26.8188C14.6562 26.8188 15.3625 27.5188 15.3625 28.3813C15.3625 29.2438 14.6562 29.95 13.7937 29.95Z" fill="#787878"/>
<path d="M13.7937 25.1125C11.9875 25.1125 10.525 26.5813 10.525 28.3813C10.525 30.1875 11.9875 31.6563 13.7937 31.6563C15.6 31.6563 17.0625 30.1875 17.0625 28.3813V28.3688C17.0592 27.504 16.7133 26.6758 16.1007 26.0655C15.488 25.4552 14.6585 25.1125 13.7937 25.1125ZM16.2062 28.3813C16.2062 29.7188 15.1312 30.8 13.7937 30.8C12.4562 30.8 11.3812 29.7188 11.3812 28.3813C11.3812 27.05 12.4562 25.9688 13.7937 25.9688C14.4562 25.9688 15.0625 26.2375 15.5 26.675C15.9375 27.1063 16.2062 27.7125 16.2062 28.375V28.3813Z" fill="#666666"/>
<path d="M13.7938 29.3313C14.3184 29.3313 14.7438 28.9059 14.7438 28.3813C14.7438 27.8566 14.3184 27.4313 13.7938 27.4313C13.2691 27.4313 12.8438 27.8566 12.8438 28.3813C12.8438 28.9059 13.2691 29.3313 13.7938 29.3313Z" fill="#EDEDED"/>
<path d="M20.6937 24.6937L19.6562 24.4375C18.8875 24.2437 18.3937 23.7 18.4625 23.1188L18.5062 22.7688C18.6562 22.8063 18.8062 22.8437 18.95 22.8875C20.0312 23.1937 20.4875 23.8812 20.6937 24.6937ZM6.81249 20.9875H0.618744V16.9688C0.768744 17.0187 0.918744 17.0687 1.06249 17.125C1.31249 17.2125 1.55624 17.3063 1.78749 17.4C4.45624 18.525 6.10624 20.1563 6.81249 20.9875Z" fill="#EDEDED"/>
<path d="M20.9125 26.8875C20.925 27.1375 20.8187 27.4 20.6125 27.6125C20.3562 27.8875 19.9687 28.0562 19.6062 28.0562L17.6625 28.0625C17.5 26.0687 15.8312 24.4937 13.7937 24.4937C11.7625 24.4937 10.0875 26.0687 9.92499 28.0625L0.618744 28.0687V21.6062H7.44374C7.56249 21.6062 7.66874 21.5375 7.71874 21.4375C7.77499 21.3375 7.76249 21.2125 7.69999 21.1187C6.58749 19.55 4.06874 17.3812 0.618744 16.3187V15.2C5.11874 16.3937 7.58124 18.9187 9.23124 20.6062C9.42499 20.8125 9.61249 21 9.78749 21.175C9.83749 21.225 9.90624 21.2562 9.97499 21.2625C10.0187 21.2687 14.0187 21.6375 17.9062 22.6125L17.85 23.0437C17.75 23.9437 18.4312 24.7625 19.5062 25.0375L20.8125 25.3562L20.85 25.775L20.875 26.3L20.9125 26.8875Z" fill="#66A3F4"/>
<path d="M17.85 23.0437C17.8375 23.1812 17.8375 23.3187 17.8562 23.45C13.9875 22.4812 10.0187 22.1187 9.97499 22.1125C9.90429 22.1058 9.83807 22.0749 9.78749 22.025C9.61249 21.85 9.42499 21.6625 9.23124 21.4562C7.58124 19.7687 5.11874 17.2437 0.618744 16.05V15.2C5.11874 16.3937 7.58124 18.9187 9.23124 20.6062C9.42499 20.8125 9.61249 21 9.78749 21.175C9.83749 21.225 9.90624 21.2562 9.97499 21.2625C10.0187 21.2687 14.0187 21.6375 17.9062 22.6125L17.85 23.0437Z" fill="#8ABAFA"/>
<path d="M10.4812 26.3625C10.166 26.8781 9.97552 27.4603 9.92499 28.0625L0.618744 28.0688V26.3688L9.76249 26.3625H10.4812ZM20.9125 26.8875C20.9187 26.9813 20.9062 27.075 20.875 27.1625C20.8312 27.325 20.7437 27.4813 20.6125 27.6125C20.3562 27.8875 19.9687 28.0563 19.6062 28.0563L17.6625 28.0625C17.6125 27.4375 17.4187 26.8625 17.1125 26.3563H19.6062C19.9687 26.3563 20.3562 26.1875 20.6125 25.9125C20.7125 25.8125 20.7875 25.7 20.8312 25.5813L20.85 25.775L20.875 26.3L20.9125 26.8875Z" fill="#35A2D1"/>
<path d="M22.3938 19.7313L16.4 20.8125C16.421 20.7779 16.4348 20.7393 16.4405 20.6992C16.4462 20.6591 16.4437 20.6182 16.4332 20.5791C16.4227 20.54 16.4044 20.5034 16.3793 20.4715C16.3543 20.4397 16.323 20.4132 16.2875 20.3938L11.6875 17.775L14.6375 16.3C14.6757 16.2804 14.7093 16.2531 14.7362 16.2197C14.7631 16.1863 14.7827 16.1477 14.7937 16.1063C14.8187 16.025 14.8062 15.9375 14.7562 15.8625L12.6312 12.4875L16.6312 12.85C16.7687 12.8625 16.9062 12.775 16.95 12.6375L18.2375 8.74375L20.4875 12.2188C20.5687 12.3375 20.7125 12.3875 20.85 12.3438L24.0937 11.2188L22.6687 15.2313C22.6187 15.375 22.6875 15.5375 22.825 15.6125L24.7688 16.5875L22.3687 19.3C22.2563 19.425 22.2688 19.6188 22.3938 19.7313Z" fill="#F2A446"/>
<path d="M22.3938 19.7313L21.5563 19.8813C21.475 19.7625 21.4438 19.5875 21.5625 19.325L23.65 16.7938L21.7313 15.85C21.6782 15.8198 21.6374 15.7721 21.6157 15.7151C21.594 15.6581 21.5929 15.5953 21.6125 15.5375L23.2063 12.1313L20.225 13.175C20.1748 13.1939 20.1195 13.1941 20.069 13.1758C20.0186 13.1575 19.9764 13.1217 19.95 13.075L18.2375 8.74375L20.4875 12.2188C20.5688 12.3375 20.7125 12.3875 20.85 12.3438L24.0938 11.2188L22.6688 15.2313C22.6188 15.375 22.6875 15.5375 22.825 15.6125L24.7688 16.5875L22.3688 19.3C22.2563 19.425 22.2688 19.6188 22.3938 19.7313Z" fill="#FCB653"/>
<path d="M17.2625 20.6563L16.4 20.8125C16.421 20.7779 16.4348 20.7393 16.4405 20.6992C16.4462 20.6591 16.4437 20.6182 16.4332 20.5791C16.4227 20.54 16.4044 20.5034 16.3793 20.4715C16.3543 20.4397 16.323 20.4132 16.2875 20.3938L11.6875 17.775L14.6375 16.3C14.6757 16.2804 14.7093 16.2531 14.7362 16.2197C14.7631 16.1863 14.7827 16.1477 14.7937 16.1063C14.8187 16.025 14.8062 15.9375 14.7562 15.8625L12.6312 12.4875L16.6312 12.85C16.7687 12.8625 16.9062 12.775 16.95 12.6375L18.2375 8.74375L17.2562 13.4188C17.2188 13.5313 17.1187 13.6 17.0125 13.5938L13.9687 13.2938L15.5812 16.0563C15.625 16.1125 15.6312 16.1875 15.6125 16.25C15.5937 16.325 15.55 16.3813 15.4938 16.4125L13.1 18.0688L16.9875 19.9688C17.3312 20.1813 17.3187 20.4688 17.2625 20.6563Z" fill="#E89431"/>
<path d="M38.1125 20.9937H37.4L35.5437 17.0125C35.7375 16.9312 35.9437 16.8625 36.15 16.7937L38.1125 20.9937Z" fill="#93CAE5"/>
<path d="M3.4625 20.9875H2.86875L1.0625 17.125C1.3125 17.2125 1.55625 17.3063 1.7875 17.4L3.4625 20.9875Z" fill="#D6D6D6"/>
</svg>
